# xmcd
#
# Track frame offsets:
#	150
#	25847
#	49911
#	74375
#	94550
#	114072
#	141230
#	165740
#	191065
#	210592
#	229201
#	248127
#
# Disc length: 3670 seconds
#
# Revision: 1
# Processed by: cddbd v1.5.2PL0 Copyright (c) Steve Scherf et al.
# Submitted via: dBpowerAMP V4.0
#
DISCID=a20e540c
DTITLE=Change - Sharing Your Love
DYEAR=1982
DGENRE=Funk
TTITLE0=The Very Best In You
TTITLE1=Hard Times (It's Gonna Be Alright)
TTITLE2=Oh What A Night
TTITLE3=Promise Your Love
TTITLE4=Everything And More
TTITLE5=Sharing Your Love
TTITLE6=Take You To Heaven
TTITLE7=Keep On It
TTITLE8=You're My Number
TTITLE9=You're My Girl
TTITLE10=The Very Best In You (Single Edit)
TTITLE11=Hard Times (Extended Version)
EXTD=Orig ATLANTIC Records - SD 19342 CD Fonte Rec. FTE Box 02
EXTT0=
EXTT1=
EXTT2=
EXTT3=
EXTT4=
EXTT5=
EXTT6=
EXTT7=
EXTT8=
EXTT9=
EXTT10=
EXTT11=
PLAYORDER=
